<?xml version="1.0" encoding="utf-8"?>
<!-- Generator: Adobe Illustrator 24.0.1, SVG Export Plug-In . SVG Version: 6.00 Build 0)  -->
<svg version="1.1" id="Capa_1" xmlns="http://www.w3.org/2000/svg" xmlns:xlink="http://www.w3.org/1999/xlink" x="0px" y="0px"
	 viewBox="0 0 512 512" style="enable-background:new 0 0 512 512;" xml:space="preserve">
<style type="text/css">
	.st0{fill:#FFFFFF;}
</style>
<g>
	<path class="st0" d="M424.8,277.8c0-23.8,0-167.7,0-191.9v0c0-25.2-20.5-45.7-45.7-45.7C27.3,40.6,45,39.4,36.5,41.2
		C15.7,45.4,0,63.9,0,85.9v0v37.8v215.1c0,25.2,20.5,45.7,45.7,45.7H318c5,48.9,46.5,87.2,96.7,87.2c53.6,0,97.2-43.6,97.2-97.2
		C512,324.3,473.7,282.9,424.8,277.8L424.8,277.8z M20,338.9V133.8h31.3c5.5,0,10-4.5,10-10s-4.5-10-10-10H20V85.9
		c0-14.2,11.5-25.7,25.7-25.7h333.3c14.2,0,25.7,11.5,25.7,25.7v27.8H131.3c-5.5,0-10,4.5-10,10s4.5,10,10,10h273.4v144.1
		c-45.5,4.6-82,41-86.7,86.7H45.7C31.5,364.6,20,353,20,338.9L20,338.9z M414.8,451.8c-42.6,0-77.2-34.7-77.2-77.2
		c0-42.6,34.7-77.2,77.2-77.2c42.6,0,77.2,34.7,77.2,77.2C492,417.2,457.3,451.8,414.8,451.8z"/>
	<path class="st0" d="M442.9,368.2H424v-18.9c0-5.5-4.5-10-10-10s-10,4.5-10,10v18.9h-18.9c-5.5,0-10,4.5-10,10s4.5,10,10,10H404
		v18.9c0,5.5,4.5,10,10,10s10-4.5,10-10v-18.9h18.9c5.5,0,10-4.5,10-10S448.5,368.2,442.9,368.2z"/>
	<path class="st0" d="M308.3,305.5h-18.1c-3.9-13.2-16.1-22.8-30.5-22.8s-26.6,9.6-30.5,22.8H108.9c-5.5,0-10,4.5-10,10
		s4.5,10,10,10h120.9c4.5,12.1,16.2,20.8,29.8,20.8s25.4-8.7,29.8-20.8h18.8c5.5,0,10-4.5,10-10S313.8,305.5,308.3,305.5z
		 M259.7,326.3c-6.5,0-11.8-5.3-11.8-11.8s5.3-11.8,11.8-11.8s11.8,5.3,11.8,11.8S266.2,326.3,259.7,326.3z"/>
	<path class="st0" d="M49.4,287.4c-5.5,0-10,4.5-10,10v34.2c0,5.5,4.5,10,10,10s10-4.5,10-10v-34.2
		C59.4,291.9,54.9,287.4,49.4,287.4z"/>
	<path class="st0" d="M79.1,287.4c-5.5,0-10,4.5-10,10v34.2c0,5.5,4.5,10,10,10s10-4.5,10-10v-34.2
		C89.1,291.9,84.7,287.4,79.1,287.4z"/>
	<path class="st0" d="M163.3,274c19.2,0,35.6-13.3,35-30.5c0-0.8,0-38.8,0-61.6c0-4.2,3.4-7.7,7.7-7.7h50.3c4.2,0,7.7,3.4,7.7,7.7
		v35.9c-4.6-1.8-9.6-2.9-15-2.9c-19.3,0-35,13.2-35,29.5s15.7,29.5,35,29.5c17.5,0,35-11.3,35-31V182c0-15.3-12.4-27.7-27.7-27.7
		H206c-15.3,0-27.7,12.4-27.7,27.7v35.9c-23.1-9.3-50,5-50,26.7C128.3,260.8,144,274,163.3,274L163.3,274z M249,254
		c-8.8,0-15-5-15-9.5s6.2-9.5,15-9.5c8.8,0,15,5,15,9.5S257.8,254,249,254z M163.3,235c8.8,0,15,5,15,9.5s-6.2,9.5-15,9.5
		c-8.8,0-15-5-15-9.5S154.5,235,163.3,235z"/>
	<path class="st0" d="M337,97h31c5.5,0,10-4.5,10-10s-4.5-10-10-10h-31c-5.5,0-10,4.5-10,10S331.5,97,337,97z"/>
	<path class="st0" d="M91.3,113.8L91.3,113.8c-5.5,0-10,4.5-10,10s4.5,10,10,10s10-4.5,10-10S96.9,113.8,91.3,113.8z"/>
</g>
</svg>
