<?xml version="1.0" encoding="utf-8"?>
<!-- Generator: Adobe Illustrator 24.0.1, SVG Export Plug-In . SVG Version: 6.00 Build 0)  -->
<svg version="1.1" id="Capa_1" xmlns="http://www.w3.org/2000/svg" xmlns:xlink="http://www.w3.org/1999/xlink" x="0px" y="0px"
	 viewBox="0 0 512 512" style="enable-background:new 0 0 512 512;" xml:space="preserve">
<style type="text/css">
	.st0{fill:#FFFFFF;}
</style>
<g>
	<g>
		<path class="st0" d="M13.6,217.2c4.6,2.8,9.7,4.1,14.8,4.1c8.7,0,17.7-3.9,25.2-11.4c1.3-1.3,2.7-2.7,4.2-4.2
			c18.7-19.1,56.4-57.4,103.2-62.4v17c0,7.3,4.2,13.9,10.9,17.1c6.9,3.3,14.8,2.4,20.7-2.4l87.5-70.6c4.5-3.6,7.2-8.9,7.2-14.7
			c0-5.8-2.5-11.2-7.1-14.8L193.2,4.8c-5.7-5-13.8-6.2-20.8-3.1c-7,3.1-11.4,9.7-11.4,17.3v18c-19.7,1.6-40.2,7.9-59.8,18.5
			c-4.9,2.6-6.7,8.7-4.1,13.5c2.6,4.9,8.7,6.7,13.5,4.1c20.2-10.8,41-16.5,60.4-16.5c5.5,0,10-4.5,10-10V20.7l85.6,69.1L181,158.8
			v-25.9c0-5.5-4.5-10-10-10c-59.8,0-105.5,46.5-127.5,68.9c-1.5,1.5-2.8,2.9-4.1,4.1c-6.3,6.3-12.1,6.3-15.6,4.3
			c-3.6-2.1-4.8-6.4-3.3-11.3c0-0.1,0.1-0.2,0.1-0.3c5.6-21,14.7-40.6,27-58.5c3.1-4.5,2-10.8-2.5-13.9c-4.5-3.1-10.8-2-13.9,2.5
			C17.7,138.2,7.7,160,1.5,183.1C-2.6,196.7,2.2,210.4,13.6,217.2L13.6,217.2z"/>
		<path class="st0" d="M205.7,454.2c-19.1-18.7-57.4-56.4-62.4-103.2h17h0c7.3,0,13.9-4.2,17.1-10.9c3.3-6.9,2.4-14.8-2.4-20.7
			l-70.6-87.5c-3.6-4.5-8.9-7.2-14.7-7.2c0,0-0.1,0-0.1,0c-5.7,0-11.1,2.6-14.7,7.1L4.8,318.8c-5,5.7-6.2,13.8-3.1,20.8
			c3.1,7,9.7,11.4,17.3,11.4h18c2.6,30.7,16.7,63.4,39.6,91.2c27.1,32.9,64.9,57.1,106.5,68.3c3.2,1,6.4,1.4,9.6,1.4
			c10.1,0,19.4-4.9,24.6-13.6c7.5-12.4,4.6-28.1-7.3-40C208.7,457.2,207.3,455.8,205.7,454.2z M200.1,488.1
			c-2.1,3.6-6.4,4.8-11.3,3.3c-0.1,0-0.2-0.1-0.3-0.1C105.9,469.2,56.6,397.5,56.6,341c0-5.5-4.5-10-10-10H20.7l69.1-85.6l69.1,85.6
			h-25.9c-5.5,0-10,4.5-10,10c0,59.8,46.5,105.5,68.9,127.5c1.5,1.5,2.9,2.8,4.1,4.1C202.1,478.8,202.1,484.7,200.1,488.1z"/>
		<path class="st0" d="M498.4,294.8c-12.4-7.5-28.1-4.6-40,7.3c-1.3,1.3-2.7,2.7-4.2,4.2c-18.7,19.1-56.4,57.4-103.2,62.4v-17
			c0-7.3-4.2-13.9-10.9-17.1c-6.9-3.3-14.8-2.4-20.7,2.4l-87.5,70.6c-4.5,3.6-7.2,8.9-7.2,14.7c0,5.8,2.5,11.2,7.1,14.8l87.1,70.2
			c3.6,3.1,8.2,4.8,12.8,4.8c2.7,0,5.4-0.6,8-1.7c7-3.1,11.4-9.7,11.4-17.3v-18c30.7-2.6,63.4-16.7,91.2-39.6
			c32.9-27.1,57.1-64.9,68.3-106.5C514.6,315.3,509.8,301.6,498.4,294.8L498.4,294.8z M491.4,323.3c0,0.1-0.1,0.2-0.1,0.3
			c-22.1,82.5-93.8,131.8-150.2,131.8c-5.5,0-10,4.5-10,10v25.9l-85.6-69.1l85.6-69.1v25.9c0,5.5,4.5,10,10,10
			c59.8,0,105.5-46.5,127.5-68.9c1.5-1.5,2.8-2.9,4.1-4.1c6.3-6.3,12.1-6.3,15.6-4.3C491.7,314.1,492.9,318.3,491.4,323.3
			L491.4,323.3z"/>
		<path class="st0" d="M306.3,57.8c19.1,18.7,57.4,56.4,62.4,103.2h-17c0,0,0,0,0,0c-7.3,0-13.9,4.2-17.1,10.9
			c-3.3,6.9-2.4,14.8,2.4,20.7l70.6,87.5c3.6,4.5,8.9,7.2,14.7,7.2h0.1c5.7,0,11.1-2.6,14.7-7.1l70.2-87.1c5-5.7,6.2-13.8,3.1-20.8
			c-3.1-7-9.7-11.4-17.3-11.4h-18c-2.6-30.7-16.7-63.4-39.6-91.2c-27.1-32.9-64.9-57.1-106.5-68.3c-13.6-4.1-27.3,0.8-34.2,12.1
			c-7.5,12.4-4.6,28.1,7.3,40C303.3,54.8,304.7,56.2,306.3,57.8L306.3,57.8z M311.9,23.9c2.1-3.6,6.4-4.8,11.3-3.3
			c0.1,0,0.2,0.1,0.3,0.1c82.5,22.1,131.8,93.8,131.8,150.2c0,5.5,4.5,10,10,10h25.9l-69.1,85.6L353.2,181h25.9c5.5,0,10-4.5,10-10
			c0-59.8-46.5-105.5-68.9-127.5c-1.5-1.5-2.9-2.8-4.1-4.1C309.9,33.2,309.9,27.3,311.9,23.9L311.9,23.9z"/>
		<path class="st0" d="M69.2,100.4c5.5,0,10-4.5,10-10c0-5.5-4.5-10-10-10h0c-5.5,0-10,4.5-10,10C59.2,95.9,63.6,100.4,69.2,100.4z"
			/>
	</g>
</g>
</svg>
