<?xml version="1.0" encoding="utf-8"?>
<!-- Generator: Adobe Illustrator 24.0.1, SVG Export Plug-In . SVG Version: 6.00 Build 0)  -->
<svg version="1.1" id="Layer_1" xmlns="http://www.w3.org/2000/svg" xmlns:xlink="http://www.w3.org/1999/xlink" x="0px" y="0px"
	 viewBox="0 0 512 512" style="enable-background:new 0 0 512 512;" xml:space="preserve">
<style type="text/css">
	.st0{fill:#FFFFFF;}
</style>
<path class="st0" d="M126.6,356.7c-29-13.5-63.7-0.9-77.2,28.1c-13.5,29-0.9,63.7,28.1,77.2c7.8,3.6,16.2,5.5,24.5,5.5
	c6.7,0,13.4-1.2,19.9-3.5c14.6-5.3,26.2-16,32.8-30c0,0,0,0,0,0C168.3,404.9,155.7,370.3,126.6,356.7z M136.6,425.5
	c-4.3,9.2-11.9,16.2-21.5,19.7c-9.6,3.5-19.9,3-29.2-1.3c-19.1-8.9-27.3-31.6-18.4-50.7c6.5-13.9,20.2-22,34.6-22
	c5.4,0,10.9,1.1,16.1,3.6C137.2,383.7,145.5,406.5,136.6,425.5z"/>
<path class="st0" d="M501.8,365.1c-11.5-24-31.7-42.2-56.9-51.4c-25.2-9.2-52.4-8.3-76.6,2.6c-6.6,3-12.8,6.6-18.6,10.8l-7.4-20.8
	c-1.8-5.1-5.1-9.3-9.5-12.4L300.6,225l67.1-143.9c7.5-16.1,5.1-35.4-6-49.2L341.3,6.6c-3.9-4.8-9.8-7.2-15.9-6.4
	c-6.1,0.7-11.3,4.5-13.8,10.1L256,129.3L200.5,10.2c-2.6-5.6-7.8-9.3-13.9-10.1c-6.1-0.8-12,1.7-15.9,6.4l-20.5,25.3
	c-11.2,13.8-13.5,33.1-6,49.2L211.4,225l-32.1,68.9c-4.3,3-7.7,7.3-9.5,12.4l-7.4,20.8c-5.8-4.2-12-7.8-18.6-10.8
	c-24.3-10.9-51.5-11.8-76.6-2.6s-45.4,27.5-56.9,51.4C-1.8,389.9-3.3,417.8,6,443.7c9.2,25.9,28.1,46.6,53,58.2
	c13.9,6.5,28.6,9.6,43.1,9.6c36.1,0,70.8-19.2,89.2-52.6c0,0,0.1-0.1,0.1-0.1c0.1-0.1,0.2-0.2,0.2-0.3c0.1-0.1,0.2-0.3,0.3-0.5
	c0.1-0.1,0.2-0.3,0.2-0.4c0.1-0.1,0.1-0.2,0.2-0.3l58.5-114.9c2.5-4.9,3.3-10.4,2.4-15.7l2.8-5.9l2.8,5.9c-0.9,5.3,0,10.9,2.5,15.7
	l58.5,114.9c0.1,0.1,0.1,0.2,0.2,0.3c0.1,0.1,0.2,0.3,0.2,0.4c0.1,0.1,0.2,0.3,0.3,0.4c0.1,0.1,0.2,0.3,0.3,0.4c0,0,0,0.1,0.1,0.1
	c18.5,33.4,53.2,52.6,89.2,52.6c14.5,0,29.2-3.1,43.1-9.6c24.9-11.6,43.7-32.3,53-58.2C515.3,417.8,513.8,389.9,501.8,365.1z
	 M328.1,22l18.1,22.4c6.4,7.9,7.7,19,3.4,28.2v0l-60,128.7L267,152.9L328.1,22z M222.4,248.6l22.6,48.4l-5.1,10.9
	c-0.4-0.2-0.8-0.4-1.1-0.6l-33.9-15.8c-0.6-0.3-1.2-0.5-1.8-0.8c-0.1,0-0.1-0.1-0.2-0.1L222.4,248.6z M233,333.3l-55.4,108.9
	c-0.4,0.6-0.8,1.2-1.1,1.9c-0.6,1.3-1.2,2.5-1.8,3.7c0,0.1-0.1,0.1-0.1,0.2c0,0,0,0.1-0.1,0.1C154,486.5,107,502.2,67.4,483.8
	c-20-9.3-35.2-26-42.6-46.8c-7.4-20.8-6.2-43.3,3.4-63.2c14-29.1,43.7-46.3,74.4-46.3c11.1,0,22.4,2.3,33,7
	c9.1,4.1,17.3,9.7,24.3,16.6c2.4,2.4,5.9,3.4,9.2,2.6c3.3-0.8,6-3.2,7.2-6.4l12.3-34.4c0.5-1.4,1.5-2.6,2.8-3.2
	c1.4-0.7,2.9-0.8,4.4-0.3c0.2,0.1,0.4,0.1,0.6,0.2l33.9,15.8c1.4,0.7,2.5,1.8,3,3.3c0,0,0,0,0,0C233.6,329.7,233.9,331.4,233,333.3z
	 M165.8,44.4L183.9,22l125.3,268.7c-0.1,0-0.2,0.1-0.2,0.1c-0.6,0.2-1.2,0.5-1.8,0.8l-33.9,15.8c-0.4,0.2-0.8,0.4-1.1,0.6
	L162.4,72.6C158.1,63.4,159.4,52.4,165.8,44.4z M487.2,437c-7.4,20.8-22.6,37.4-42.6,46.8C405,502.2,358,486.5,337.5,448
	c0,0,0-0.1-0.1-0.1c0-0.1-0.1-0.1-0.1-0.2c-0.6-1.1-1.2-2.3-1.8-3.7c-0.3-0.7-0.7-1.3-1.1-1.9L279,333.3c-1-1.9-0.6-3.6-0.3-4.5
	c0.5-1.5,1.6-2.6,3-3.3l33.9-15.8c1.4-0.6,2.9-0.7,4.4-0.2c0.1,0,0.3,0.1,0.4,0.2c0.1,0,0.1,0,0.2,0.1c1.3,0.6,2.3,1.8,2.8,3.2
	l12.3,34.4c1.1,3.2,3.9,5.6,7.2,6.4c3.3,0.8,6.8-0.2,9.2-2.6c7-6.9,15.2-12.5,24.3-16.6c40.1-18,88.3-0.4,107.4,39.3h0
	C493.4,393.7,494.6,416.2,487.2,437z"/>
<path class="st0" d="M385.4,356.7c-29,13.5-41.6,48.2-28.1,77.2c6.6,14.1,18.2,24.7,32.8,30c6.5,2.4,13.2,3.5,19.9,3.5
	c8.4,0,16.7-1.8,24.5-5.5c14.1-6.6,24.7-18.2,30-32.8c5.3-14.6,4.6-30.4-1.9-44.4C449.1,355.8,414.4,343.2,385.4,356.7z
	 M445.8,422.4c-3.5,9.6-10.5,17.2-19.7,21.5c-9.2,4.3-19.6,4.8-29.2,1.3c-9.6-3.5-17.2-10.5-21.5-19.7c-8.9-19.1-0.6-41.8,18.4-50.7
	c5.2-2.4,10.7-3.6,16.1-3.6c14.4,0,28.2,8.2,34.6,22C448.8,402.5,449.2,412.9,445.8,422.4z"/>
<path class="st0" d="M254,227.1c-2.6,0-5.2-1.1-7.1-2.9c-0.5-0.5-0.9-1-1.2-1.5c-0.4-0.5-0.7-1.1-0.9-1.7c-0.3-0.6-0.4-1.2-0.6-1.9
	c-0.1-0.6-0.2-1.3-0.2-2c0-0.7,0.1-1.3,0.2-1.9s0.3-1.3,0.6-1.9s0.6-1.2,0.9-1.7c0.4-0.6,0.8-1.1,1.2-1.5c0.5-0.5,1-0.9,1.5-1.2
	c0.5-0.4,1.1-0.7,1.7-0.9c0.6-0.3,1.2-0.4,1.9-0.6c1.3-0.3,2.6-0.3,3.9,0c0.6,0.1,1.3,0.3,1.9,0.6c0.6,0.3,1.2,0.6,1.7,0.9
	c0.6,0.4,1.1,0.8,1.5,1.2c0.5,0.5,0.9,1,1.2,1.5c0.4,0.5,0.7,1.1,0.9,1.7s0.4,1.2,0.6,1.9c0.1,0.6,0.2,1.3,0.2,1.9
	c0,0.6-0.1,1.3-0.2,2c-0.1,0.6-0.3,1.3-0.6,1.9c-0.3,0.6-0.6,1.2-0.9,1.7c-0.4,0.6-0.8,1.1-1.2,1.5c-0.5,0.5-1,0.9-1.5,1.2
	c-0.5,0.4-1.1,0.7-1.7,0.9c-0.6,0.3-1.2,0.4-1.9,0.6C255.3,227,254.7,227.1,254,227.1z"/>
<path class="st0" d="M236.3,193.7c-3.8,0-7.4-2.1-9.1-5.8l-42.7-91.5c-2.3-5-0.2-10.9,4.8-13.3c5-2.3,10.9-0.2,13.3,4.8l42.7,91.5
	c2.3,5,0.2,10.9-4.8,13.3C239.2,193.4,237.7,193.7,236.3,193.7z"/>
</svg>
