<?xml version="1.0" encoding="utf-8"?>
<!-- Generator: Adobe Illustrator 24.0.1, SVG Export Plug-In . SVG Version: 6.00 Build 0)  -->
<svg version="1.1" id="Layer_1" xmlns="http://www.w3.org/2000/svg" xmlns:xlink="http://www.w3.org/1999/xlink" x="0px" y="0px"
	 viewBox="0 0 512 512" style="enable-background:new 0 0 512 512;" xml:space="preserve">
<style type="text/css">
	.st0{fill-rule:evenodd;clip-rule:evenodd;fill:#FFFFFF;}
</style>
<g>
	<path class="st0" d="M460,32H52C23.3,32,0,55.3,0,84v246.7c0,28.7,23.3,52,52,52h138.5v40.9c0,16.2-10.6,30.9-25.8,36.2h-21.4
		c-5.5,0-10,4.5-10,10c0,5.5,4.5,10,10,10h22.9h0.2H216c5.5,0,10-4.5,10-10c0-5.5-4.5-10-10-10h-18.3c8-10.1,12.8-22.8,12.8-36.2
		v-40.9h91v40.9c0,13.4,4.7,26.1,12.8,36.2H296c-5.5,0-10,4.5-10,10c0,5.5,4.5,10,10,10h49.7h0.1h0.1h22.9c5.5,0,10-4.5,10-10
		c0-5.5-4.5-10-10-10h-21.4c-15.3-5.3-25.8-20-25.8-36.2v-40.9H460c28.7,0,52-23.3,52-52V84C512,55.3,488.7,32,460,32z M52,52h408
		c17.6,0,32,14.3,32,32v216.5H20V84C20,66.3,34.3,52,52,52z M460,362.6H52c-17.6,0-32-14.3-32-32v-10.2h472v10.2
		C492,348.3,477.7,362.6,460,362.6z"/>
	<path class="st0" d="M157.7,204.8h7.2c1.6,5,3.6,9.9,6,14.6l-5.1,5.1c-1.9,1.9-2.9,4.4-2.9,7.1s1.1,5.2,2.9,7.1l27.2,27.2
		c3.9,3.9,10.2,3.9,14.1,0l5.1-5.1c4.7,2.4,9.6,4.4,14.6,6v7.2c0,5.5,4.5,10,10,10h38.4c5.5,0,10-4.5,10-10v-7.2
		c5-1.6,9.9-3.6,14.6-6l5.1,5.1c3.9,3.9,10.2,3.9,14.1,0l27.2-27.2c1.9-1.9,2.9-4.4,2.9-7.1s-1.1-5.2-2.9-7.1l-5.1-5.1
		c2.4-4.7,4.4-9.6,6-14.6h7.2c5.5,0,10-4.5,10-10v-38.4c0-5.5-4.5-10-10-10h-7.2c-1.6-5-3.6-9.9-6-14.6l5.1-5.1
		c1.9-1.9,2.9-4.4,2.9-7.1s-1.1-5.2-2.9-7.1L319,85.5c-3.9-3.9-10.2-3.9-14.1,0l-5.1,5.1c-4.7-2.4-9.6-4.4-14.6-6v-7.2
		c0-5.5-4.5-10-10-10h-38.4c-5.5,0-10,4.5-10,10v7.2c-5,1.6-9.9,3.6-14.6,6l-5.1-5.1c-3.9-3.9-10.2-3.9-14.1,0l-27.2,27.2
		c-3.9,3.9-3.9,10.2,0,14.1l5.1,5.1c-2.4,4.7-4.4,9.6-6,14.6h-7.2c-5.5,0-10,4.5-10,10v38.4C147.7,200.4,152.2,204.8,157.7,204.8z
		 M167.7,166.4h4.8c4.7,0,8.7-3.2,9.8-7.8c1.9-8.2,5.1-16,9.6-23.2c2.5-3.9,1.9-9.1-1.4-12.4l-3.4-3.4l13-13l3.4,3.4
		c3.3,3.3,8.4,3.9,12.4,1.4c7.2-4.5,15-7.7,23.2-9.6c4.5-1,7.8-5.1,7.8-9.7v-4.8h18.4v4.8c0,4.7,3.2,8.7,7.8,9.7
		c8.2,1.9,16,5.1,23.2,9.6c3.9,2.5,9.1,1.9,12.4-1.4l3.4-3.4l13,13l-3.4,3.4c-3.3,3.3-3.9,8.4-1.4,12.4c4.5,7.2,7.7,15,9.6,23.2
		c1,4.5,5.1,7.8,9.7,7.8h4.8v18.4h-4.8c-4.7,0-8.7,3.2-9.7,7.8c-1.9,8.2-5.1,16-9.6,23.2c-2.5,3.9-1.9,9.1,1.4,12.4l3.4,3.4l-13,13
		l-3.4-3.4c-3.3-3.3-8.4-3.9-12.4-1.4c-7.2,4.5-15,7.7-23.2,9.6c-4.5,1-7.8,5.1-7.8,9.7v4.8h-18.4v-4.8c0-4.7-3.2-8.7-7.8-9.7
		c-8.2-1.9-16-5.1-23.2-9.6c-3.9-2.5-9.1-1.9-12.4,1.4l-3.4,3.4l-13-13l3.4-3.4c3.3-3.3,3.9-8.4,1.4-12.4c-4.5-7.2-7.7-15-9.6-23.2
		c-1-4.5-5.1-7.8-9.7-7.8h-4.8V166.4z"/>
	<path class="st0" d="M256,219.5c24.2,0,43.8-19.7,43.8-43.8s-19.7-43.8-43.8-43.8s-43.8,19.7-43.8,43.8S231.8,219.5,256,219.5z
		 M256,151.8c13.1,0,23.8,10.7,23.8,23.8s-10.7,23.8-23.8,23.8s-23.8-10.7-23.8-23.8S242.9,151.8,256,151.8z"/>
	<path class="st0" d="M273.1,331.5h-34.3c-5.5,0-10,4.5-10,10c0,5.5,4.5,10,10,10h34.3c5.5,0,10-4.5,10-10
		C283.1,336,278.7,331.5,273.1,331.5z"/>
	<path class="st0" d="M256,459.7c-5.5,0-10,4.5-10,10s4.5,10,10,10s10-4.5,10-10S261.5,459.7,256,459.7z"/>
</g>
</svg>
