<?xml version="1.0" encoding="utf-8"?>
<!-- Generator: Adobe Illustrator 24.0.1, SVG Export Plug-In . SVG Version: 6.00 Build 0)  -->
<svg version="1.1" id="Layer_1" xmlns="http://www.w3.org/2000/svg" xmlns:xlink="http://www.w3.org/1999/xlink" x="0px" y="0px"
	 viewBox="0 0 512 512" style="enable-background:new 0 0 512 512;" xml:space="preserve">
<style type="text/css">
	.st0{fill:#FFFFFF;}
</style>
<g>
	<g>
		<path class="st0" d="M336.5,74.2H175.5c-19,0-34.5,15.4-34.5,34.4v115.3c0,19,15.5,34.4,34.5,34.4h43.8l27.6,47.9
			c1.9,3.2,5.3,5.2,9,5.2c3.7,0,7.2-2,9.1-5.2l27.7-47.9h43.8c19,0,34.5-15.4,34.5-34.4V108.6C370.9,89.6,355.5,74.2,336.5,74.2z
			 M350,223.9c0,7.5-6.1,13.5-13.6,13.5h-49.8c-3.7,0-7.2,2-9,5.2L256,280.1l-21.6-37.4c-1.9-3.2-5.3-5.2-9.1-5.2h-49.8
			c-7.5,0-13.6-6.1-13.6-13.5V108.6h0c0-7.5,6.1-13.5,13.6-13.5h160.9c7.5,0,13.6,6.1,13.6,13.5L350,223.9L350,223.9z"/>
	</g>
</g>
<g>
	<g>
		<path class="st0" d="M292.7,157.2l-53.2-30.6c-3.2-1.9-7.2-1.9-10.4,0s-5.2,5.3-5.2,9v61.3c0,3.7,2,7.2,5.2,9
			c1.6,0.9,3.4,1.4,5.2,1.4c1.8,0,3.6-0.5,5.2-1.4l53.2-30.6c3.2-1.9,5.2-5.3,5.2-9.1C297.9,162.5,295.9,159.1,292.7,157.2z
			 M244.7,178.8v-25.1l21.8,12.6L244.7,178.8z"/>
	</g>
</g>
<g>
	<g>
		<path class="st0" d="M501.6,316.6h-29.3H347.6h-29.3H193.7h-29.3H39.7H10.4c-5.8,0-10.4,4.7-10.4,10.4v100.3
			c0,5.8,4.7,10.4,10.4,10.4h29.3c5.8,0,10.4-4.7,10.4-10.4v-31.7h103.8v31.7c0,5.8,4.7,10.4,10.4,10.4h29.3
			c5.8,0,10.4-4.7,10.4-10.4v-31.7h103.8v31.7c0,5.8,4.7,10.4,10.4,10.4h29.3c5.8,0,10.4-4.7,10.4-10.4v-31.7h103.8v31.7
			c0,5.8,4.7,10.4,10.4,10.4h29.3c5.8,0,10.4-4.7,10.4-10.4V327.1C512,321.3,507.3,316.6,501.6,316.6z M29.3,385.2v31.7h-8.4v-79.4
			h8.4V385.2z M153.9,374.8H50.2v-37.3h103.8V374.8z M183.2,416.9h-8.4v-31.7v-47.7h8.4V416.9z M307.9,374.8H204.1v-37.3h103.8
			V374.8z M337.2,385.2v31.7h-8.4v-79.4h8.4V385.2z M461.8,374.8H358.1v-37.3h103.8V374.8z M491.1,416.9h-8.4v-31.7v-47.7h8.4V416.9
			z"/>
	</g>
</g>
<g>
	<g>
		<path class="st0" d="M184.6,148.9c-5.8,0-10.4,4.7-10.4,10.4v56.3c0,5.8,4.7,10.4,10.4,10.4c5.8,0,10.4-4.7,10.4-10.4v-56.3
			C195,153.6,190.4,148.9,184.6,148.9z"/>
	</g>
</g>
<g>
	<g>
		<path class="st0" d="M184.6,100.3c-5.8,0-10.4,4.7-10.4,10.4v17.1c0,5.8,4.7,10.4,10.4,10.4s10.4-4.7,10.4-10.4v-17.1
			C195,105,190.4,100.3,184.6,100.3z"/>
	</g>
</g>
</svg>
